<?xml version="1.0" standalone="no"?>
<svg viewBox="0 0 200 200" xmlns="http://www.w3.org/2000/svg">
  <path fill="#8A3FFC" d="M21.9,-27C34.4,-25.9,54.9,-30.2,62.3,-25.1C69.8,-20.1,64.3,-5.8,55.9,3.5C47.4,12.7,36,17,27.7,20.8C19.4,24.6,14.3,28,7.4,34.1C0.5,40.2,-8.3,49.1,-15.7,49C-23,48.8,-29,39.6,-42.3,32.2C-55.6,24.9,-76.1,19.4,-74.5,12.4C-73,5.4,-49.3,-3.2,-39.4,-15C-29.4,-26.9,-33.1,-42,-28.8,-46.9C-24.5,-51.7,-12.2,-46.2,-3.8,-40.3C4.6,-34.4,9.3,-28,21.9,-27Z" transform="translate(100 100)" />
</svg>
